# xmcd
#
# Track frame offsets:
#	150
#	13300
#	24147
#	34977
#	44312
#	55542
#	71072
#	83797
#	97037
#	109640
#	122900
#	134855
#	152082
#	166632
#	180022
#	193450
#	204892
#	217550
#	231602
#	244677
#	258835
#	270777
#	286597
#	302497
#	313869
#	326575
#	336195
#
# Disc length: 4659 seconds
#
# Revision: 0
# Processed by: cddbd v1.5.2PL0 Copyright (c) Steve Scherf et al.
# Submitted via: EasyCDDAExtractor 11.1.0.1
#
DISCID=6e12311b
DTITLE=Various Artist - The Chess Rarities - Disc 2
DYEAR=1996
DGENRE=Blues
TTITLE0=Little Milton - Saving My Love For You
TTITLE1=The Vibrations - You're Mine
TTITLE2=The Tune Weavers - Your Skies Of Blue
TTITLE3=The Gems - That's What They Put Erasors On Pencils For
TTITLE4=Bill And Will - Goin' To The River
TTITLE5=Big Maybelle - Maybelle Sings The Blues
TTITLE6=Clarence Samuels - Lollypop Mama
TTITLE7=Andrew Tibbs - Bilbo Is Dead
TTITLE8=Sunnyland Slim - She Ain't Nowhere
TTITLE9=Little Johnny Jones - Big Town Playboy
TTITLE10=Dr Isaiah Ross - Dr Ross' Boogie
TTITLE11=Muddy Waters - All Night Long (alternate)
TTITLE12=Arbee Stidham - Mr Commissioner
TTITLE13=Memphis Minnie - Conjur Man
TTITLE14=Memphis Minnie - Broken Heart (alternate)
TTITLE15=Eddie Boyd - Hard Time Gettin' Started
TTITLE16=Little Walter - Fast Boogie
TTITLE17=Willie Mabon - Got To Have It
TTITLE18=Alberta Adams - Remember
TTITLE19=Little Walter - Got To Find My Baby (alternate)
TTITLE20=Paul Gayten with Myrtle Jones - Right To Love You
TTITLE21=Floyd Dixon - Please Don't Go
TTITLE22=Muddy Waters - Double Trouble (alternate)
TTITLE23=Lloyd Glenn - The Shakedown
TTITLE24=Little Joe Blue - Dirty Work Goin' On
TTITLE25=Eddie Burns - Jinglin' Baby
TTITLE26=Muddy Waters - That's Why I Don't Mind
EXTD=
EXTT0=
EXTT1=
EXTT2=
EXTT3=
EXTT4=
EXTT5=
EXTT6=
EXTT7=
EXTT8=
EXTT9=
EXTT10=
EXTT11=
EXTT12=
EXTT13=
EXTT14=
EXTT15=
EXTT16=
EXTT17=
EXTT18=
EXTT19=
EXTT20=
EXTT21=
EXTT22=
EXTT23=
EXTT24=
EXTT25=
EXTT26=
PLAYORDER=
